<?xml version="1.0" encoding="UTF-8" standalone="no"?>
<!DOCTYPE svg PUBLIC "-//W3C//DTD SVG 1.1//EN" "http://www.w3.org/Graphics/SVG/1.1/DTD/svg11.dtd">
<svg version="1.1" xmlns="http://www.w3.org/2000/svg" xmlns:xlink="http://www.w3.org/1999/xlink" preserveAspectRatio="xMidYMid meet" viewBox="159 -1 23 42" width="19" height="38"><defs><path d="M171.88 13.06C171.88 10.21 171.88 8.63 171.88 8.31C171.88 7 172.94 5.94 174.25 5.94C174.41 5.94 175.2 5.94 176.63 5.94L176.63 0C173.77 0 172.19 0 171.88 0C167.94 0 164.75 3.19 164.75 7.13C164.75 7.52 164.75 9.5 164.75 13.06L160 13.06L160 19L164.75 19L164.75 38L171.88 38L171.88 19L176.63 19L179 13.06L171.88 13.06Z" id="b5nv1Gz0iM"></path></defs><g><g><use xlink:href="#b5nv1Gz0iM" opacity="1" fill="#f53838" fill-opacity="1"></use><g><use xlink:href="#b5nv1Gz0iM" opacity="1" fill-opacity="0" stroke="#000000" stroke-width="1" stroke-opacity="0"></use></g></g></g></svg>