<svg width="35" height="35" xmlns="http://www.w3.org/2000/svg">

 <g>
  <title>background</title>
  <rect fill="#f90404" id="canvas_background" height="37" width="37" y="-1" x="-1"/>
 </g>
 <g>
  <title>Layer 1</title>
  <path stroke="null" id="svg_1" fill="white" d="m16.900008,-9.419433c-19.495933,0 -35.300033,12.670143 -35.300033,28.300043c0,15.62985 15.8041,28.299993 35.300033,28.299993c19.495891,0 35.299991,-12.670143 35.299991,-28.299993c0,-15.629901 -15.8041,-28.300043 -35.299991,-28.300043zm14.358902,23.182461c0.014708,0.241729 0.01849,0.483458 0.01849,0.719291c0,7.36979 -6.990239,15.862651 -19.779131,15.862651c-3.77899,0.005054 -7.479186,-0.865003 -10.656122,-2.505729c0.540573,0.053062 1.095708,0.073782 1.658406,0.073782c3.257895,0 6.254612,-0.887407 8.633789,-2.384948c-1.449821,-0.022741 -2.854677,-0.407655 -4.018736,-1.101004c-1.164059,-0.693181 -2.029119,-1.660435 -2.474992,-2.766661c1.04114,0.158682 2.113797,0.125497 3.136446,-0.097197c-1.573581,-0.255205 -2.988733,-0.938785 -4.005288,-1.934844c-1.016766,-0.996227 -1.57232,-2.243617 -1.572741,-3.530593l0,-0.067886c0.937551,0.41574 2.011259,0.669261 3.151155,0.69874c-1.475245,-0.787346 -2.519537,-1.996834 -2.919393,-3.380838c-0.399856,-1.384173 -0.125021,-2.83859 0.768405,-4.065597c1.746299,1.721583 3.924392,3.129844 6.39287,4.13382c2.468478,1.003976 5.172289,1.581094 7.936615,1.694125c-0.351319,-1.195843 -0.200033,-2.451487 0.430324,-3.571358c0.630357,-1.119871 1.704695,-2.041474 3.055971,-2.621455c1.351065,-0.579813 2.903424,-0.785662 4.415441,-0.585372c1.512016,0.20029 2.899222,0.795432 3.945825,1.693114c1.556141,-0.246783 3.048196,-0.704468 4.412499,-1.353178c-0.518574,1.291693 -1.604259,2.388317 -3.05555,3.086552c1.378381,-0.133077 2.724193,-0.430227 3.993311,-0.881511c-0.932298,1.119871 -2.106443,2.097232 -3.467594,2.886094z"/>
 </g>
</svg>